<?xml version="1.0" standalone="no"?>
<!DOCTYPE svg PUBLIC "-//W3C//DTD SVG 1.1//EN" "http://www.w3.org/Graphics/SVG/1.1/DTD/svg11.dtd">
<svg xmlns="http://www.w3.org/2000/svg" width="103" height="24" viewBox="0 0 103 24" fill="none">
<path fill-rule="evenodd" clip-rule="evenodd" d="M12.9629 2.9691L22.3537 9.91953V24.0007H0V9.91953L2.25024 8.38087V6.85725L12.9629 0V2.9691ZM5.76025 7.77535V20.7301H16.84V17.0369H9.4535V5.25L5.76025 7.77535Z" fill="black"/>
<path d="M38.2175 18.328H45.6935V22.024H34.3535V2.42398H38.2175V18.328Z" fill="black"/>
<path d="M58.0872 8.02398H61.6992V22.024H58.0872V20.372C57.0046 21.7347 55.4832 22.416 53.5232 22.416C51.6566 22.416 50.0512 21.7067 48.7072 20.288C47.3819 18.8507 46.7192 17.096 46.7192 15.024C46.7192 12.952 47.3819 11.2067 48.7072 9.78798C50.0512 8.35065 51.6566 7.63198 53.5232 7.63198C55.4832 7.63198 57.0046 8.31332 58.0872 9.67598V8.02398ZM51.4232 17.88C52.1512 18.608 53.0752 18.972 54.1952 18.972C55.3152 18.972 56.2392 18.608 56.9672 17.88C57.7139 17.1333 58.0872 16.1813 58.0872 15.024C58.0872 13.8667 57.7139 12.924 56.9672 12.196C56.2392 11.4493 55.3152 11.076 54.1952 11.076C53.0752 11.076 52.1512 11.4493 51.4232 12.196C50.6952 12.924 50.3312 13.8667 50.3312 15.024C50.3312 16.1813 50.6952 17.1333 51.4232 17.88Z" fill="black"/>
<path d="M73.1226 7.63198C75.0079 7.63198 76.6132 8.35065 77.9386 9.78798C79.2826 11.2067 79.9546 12.952 79.9546 15.024C79.9546 17.096 79.2826 18.8507 77.9386 20.288C76.6132 21.7067 75.0079 22.416 73.1226 22.416C71.1626 22.416 69.6506 21.7347 68.5866 20.372V22.024H64.9746V2.42398H68.5866V9.67598C69.6506 8.31332 71.1626 7.63198 73.1226 7.63198ZM69.6786 17.88C70.4066 18.608 71.3306 18.972 72.4506 18.972C73.5706 18.972 74.4946 18.608 75.2226 17.88C75.9692 17.1333 76.3426 16.1813 76.3426 15.024C76.3426 13.8667 75.9692 12.924 75.2226 12.196C74.4946 11.4493 73.5706 11.076 72.4506 11.076C71.3306 11.076 70.4066 11.4493 69.6786 12.196C68.9506 12.924 68.5866 13.8667 68.5866 15.024C68.5866 16.1813 68.9506 17.1333 69.6786 17.88Z" fill="black"/>
<path d="M85.5539 16.508C86.0393 18.2627 87.3553 19.14 89.5019 19.14C90.8833 19.14 91.9286 18.6733 92.6379 17.74L95.5499 19.42C94.1686 21.4173 92.1339 22.416 89.4459 22.416C87.1313 22.416 85.2739 21.716 83.8739 20.316C82.4739 18.916 81.7739 17.152 81.7739 15.024C81.7739 12.9147 82.4646 11.16 83.8459 9.75998C85.2273 8.34132 87.0006 7.63198 89.1659 7.63198C91.2193 7.63198 92.9086 8.34132 94.2339 9.75998C95.5779 11.1787 96.2499 12.9333 96.2499 15.024C96.2499 15.4907 96.2033 15.9853 96.1099 16.508H85.5539ZM85.4979 13.708H92.6379C92.4326 12.756 92.0033 12.0467 91.3499 11.58C90.7153 11.1133 89.9873 10.88 89.1659 10.88C88.1953 10.88 87.3926 11.132 86.7579 11.636C86.1233 12.1213 85.7033 12.812 85.4979 13.708Z" fill="black"/>
<path d="M98.7715 22.024V1.58398H102.383V22.024H98.7715Z" fill="black"/>
</svg>