<?xml version="1.0" standalone="no"?>
<!DOCTYPE svg PUBLIC "-//W3C//DTD SVG 1.1//EN" "http://www.w3.org/Graphics/SVG/1.1/DTD/svg11.dtd">
<svg xmlns="http://www.w3.org/2000/svg" width="103" height="24" viewBox="0 0 103 24" fill="none">
<path fill-rule="evenodd" clip-rule="evenodd" d="M13.4834 2.9691L22.8742 9.91953V24.0007H0.520508V9.91953L2.77075 8.38087V6.85725L13.4834 0V2.9691ZM6.28076 7.77535V20.7301H17.3605V17.0369H9.974V5.25L6.28076 7.77535Z" fill="white"/>
<path d="M38.738 18.328H46.214V22.024H34.874V2.42398H38.738V18.328Z" fill="white"/>
<path d="M58.6077 8.02398H62.2197V22.024H58.6077V20.372C57.5251 21.7347 56.0037 22.416 54.0437 22.416C52.1771 22.416 50.5717 21.7067 49.2277 20.288C47.9024 18.8507 47.2397 17.096 47.2397 15.024C47.2397 12.952 47.9024 11.2067 49.2277 9.78798C50.5717 8.35065 52.1771 7.63198 54.0437 7.63198C56.0037 7.63198 57.5251 8.31332 58.6077 9.67598V8.02398ZM51.9437 17.88C52.6717 18.608 53.5957 18.972 54.7157 18.972C55.8357 18.972 56.7597 18.608 57.4877 17.88C58.2344 17.1333 58.6077 16.1813 58.6077 15.024C58.6077 13.8667 58.2344 12.924 57.4877 12.196C56.7597 11.4493 55.8357 11.076 54.7157 11.076C53.5957 11.076 52.6717 11.4493 51.9437 12.196C51.2157 12.924 50.8517 13.8667 50.8517 15.024C50.8517 16.1813 51.2157 17.1333 51.9437 17.88Z" fill="white"/>
<path d="M73.6431 7.63198C75.5284 7.63198 77.1338 8.35065 78.4591 9.78798C79.8031 11.2067 80.4751 12.952 80.4751 15.024C80.4751 17.096 79.8031 18.8507 78.4591 20.288C77.1338 21.7067 75.5284 22.416 73.6431 22.416C71.6831 22.416 70.1711 21.7347 69.1071 20.372V22.024H65.4951V2.42398H69.1071V9.67598C70.1711 8.31332 71.6831 7.63198 73.6431 7.63198ZM70.1991 17.88C70.9271 18.608 71.8511 18.972 72.9711 18.972C74.0911 18.972 75.0151 18.608 75.7431 17.88C76.4898 17.1333 76.8631 16.1813 76.8631 15.024C76.8631 13.8667 76.4898 12.924 75.7431 12.196C75.0151 11.4493 74.0911 11.076 72.9711 11.076C71.8511 11.076 70.9271 11.4493 70.1991 12.196C69.4711 12.924 69.1071 13.8667 69.1071 15.024C69.1071 16.1813 69.4711 17.1333 70.1991 17.88Z" fill="white"/>
<path d="M86.0744 16.508C86.5598 18.2627 87.8758 19.14 90.0224 19.14C91.4038 19.14 92.4491 18.6733 93.1584 17.74L96.0704 19.42C94.6891 21.4173 92.6544 22.416 89.9664 22.416C87.6518 22.416 85.7944 21.716 84.3944 20.316C82.9944 18.916 82.2944 17.152 82.2944 15.024C82.2944 12.9147 82.9851 11.16 84.3664 9.75998C85.7478 8.34132 87.5211 7.63198 89.6864 7.63198C91.7398 7.63198 93.4291 8.34132 94.7544 9.75998C96.0984 11.1787 96.7704 12.9333 96.7704 15.024C96.7704 15.4907 96.7238 15.9853 96.6304 16.508H86.0744ZM86.0184 13.708H93.1584C92.9531 12.756 92.5238 12.0467 91.8704 11.58C91.2358 11.1133 90.5078 10.88 89.6864 10.88C88.7158 10.88 87.9131 11.132 87.2784 11.636C86.6438 12.1213 86.2238 12.812 86.0184 13.708Z" fill="white"/>
<path d="M99.292 22.024V1.58398H102.904V22.024H99.292Z" fill="white"/>
</svg>